<svg width="587" height="126" viewBox="0 0 587 126" fill="none" xmlns="http://www.w3.org/2000/svg">
<path d="M140.26 24.2727H159.224L179.252 73.1364H180.104L200.133 24.2727H219.096V97H204.181V49.6634H203.577L184.756 96.6449H174.6L155.779 49.4858H155.175V97H140.26V24.2727ZM244.034 98.0298C240.554 98.0298 237.453 97.4261 234.73 96.2188C232.008 94.9877 229.853 93.1766 228.267 90.7855C226.705 88.3707 225.923 85.3641 225.923 81.7656C225.923 78.7353 226.48 76.1903 227.593 74.1307C228.705 72.071 230.22 70.4138 232.138 69.1591C234.056 67.9044 236.234 66.9574 238.672 66.3182C241.134 65.679 243.715 65.2292 246.414 64.9688C249.586 64.6373 252.143 64.3295 254.084 64.0455C256.025 63.7377 257.434 63.2879 258.31 62.696C259.186 62.1042 259.624 61.2282 259.624 60.0682V59.8551C259.624 57.6061 258.914 55.866 257.493 54.6349C256.096 53.4039 254.108 52.7884 251.527 52.7884C248.805 52.7884 246.638 53.392 245.029 54.5994C243.419 55.7831 242.353 57.2746 241.833 59.0739L227.841 57.9375C228.551 54.6231 229.948 51.7585 232.031 49.3438C234.115 46.9053 236.802 45.035 240.093 43.733C243.407 42.4072 247.242 41.7443 251.598 41.7443C254.628 41.7443 257.529 42.0994 260.298 42.8097C263.092 43.5199 265.566 44.6207 267.72 46.1122C269.898 47.6037 271.615 49.5213 272.869 51.8651C274.124 54.1851 274.752 56.9669 274.752 60.2102V97H260.405V89.4361H259.979C259.103 91.1406 257.931 92.6439 256.463 93.946C254.995 95.2244 253.232 96.2306 251.172 96.9645C249.112 97.6747 246.733 98.0298 244.034 98.0298ZM248.367 87.5895C250.592 87.5895 252.557 87.1515 254.262 86.2756C255.966 85.3759 257.304 84.1686 258.274 82.6534C259.245 81.1383 259.73 79.4219 259.73 77.5043V71.7159C259.257 72.0237 258.606 72.3078 257.777 72.5682C256.972 72.8049 256.061 73.0298 255.043 73.2429C254.025 73.4323 253.007 73.6098 251.989 73.7756C250.971 73.9176 250.048 74.0478 249.219 74.1662C247.443 74.4266 245.893 74.8409 244.567 75.4091C243.241 75.9773 242.211 76.7467 241.477 77.7173C240.744 78.6643 240.377 79.848 240.377 81.2685C240.377 83.3281 241.122 84.9025 242.614 85.9915C244.129 87.0568 246.047 87.5895 248.367 87.5895ZM312.82 42.4545V53.8182H279.156V42.4545H312.82ZM286.862 97V38.5128C286.862 34.5592 287.631 31.2803 289.17 28.6761C290.732 26.072 292.863 24.1188 295.562 22.8168C298.261 21.5147 301.327 20.8636 304.759 20.8636C307.079 20.8636 309.198 21.0412 311.116 21.3963C313.057 21.7514 314.501 22.071 315.448 22.3551L312.749 33.7188C312.158 33.5294 311.424 33.3518 310.548 33.1861C309.695 33.0204 308.82 32.9375 307.92 32.9375C305.695 32.9375 304.144 33.4583 303.268 34.5C302.392 35.518 301.954 36.9503 301.954 38.7969V97H286.862ZM329.822 97L314.979 42.4545H330.284L338.736 79.1023H339.233L348.04 42.4545H363.061L372.01 78.8892H372.471L380.781 42.4545H396.051L381.243 97H365.227L355.852 62.696H355.177L345.802 97H329.822ZM401.405 97V24.2727H416.533V51.6165H416.994C417.657 50.1487 418.616 48.6572 419.871 47.142C421.149 45.6032 422.807 44.3248 424.843 43.3068C426.902 42.2652 429.459 41.7443 432.513 41.7443C436.49 41.7443 440.16 42.786 443.521 44.8693C446.883 46.929 449.57 50.0421 451.583 54.2088C453.595 58.3518 454.601 63.5483 454.601 69.7983C454.601 75.8826 453.619 81.0199 451.654 85.2102C449.712 89.3769 447.061 92.5374 443.699 94.6918C440.361 96.8224 436.62 97.8878 432.477 97.8878C429.542 97.8878 427.044 97.4025 424.985 96.4318C422.949 95.4612 421.28 94.242 419.977 92.7741C418.675 91.2827 417.681 89.7794 416.994 88.2642H416.32V97H401.405ZM416.213 69.7273C416.213 72.9706 416.663 75.7997 417.563 78.2145C418.462 80.6293 419.764 82.5114 421.469 83.8608C423.173 85.1866 425.245 85.8494 427.683 85.8494C430.146 85.8494 432.229 85.1747 433.933 83.8253C435.638 82.4522 436.928 80.5582 437.804 78.1435C438.704 75.705 439.154 72.8996 439.154 69.7273C439.154 66.5786 438.716 63.8087 437.84 61.4176C436.964 59.0265 435.673 57.1562 433.969 55.8068C432.264 54.4574 430.169 53.7827 427.683 53.7827C425.221 53.7827 423.138 54.4337 421.433 55.7358C419.753 57.0379 418.462 58.8845 417.563 61.2756C416.663 63.6667 416.213 66.4839 416.213 69.7273ZM476.823 65.4659V97H461.695V24.2727H476.397V52.0781H477.036C478.267 48.8584 480.256 46.3371 483.002 44.5142C485.748 42.6676 489.193 41.7443 493.336 41.7443C497.124 41.7443 500.426 42.5729 503.243 44.2301C506.084 45.8636 508.286 48.2192 509.849 51.2969C511.435 54.3509 512.216 58.0085 512.192 62.2699V97H497.064V64.9688C497.088 61.607 496.236 58.991 494.508 57.1207C492.803 55.2505 490.412 54.3153 487.334 54.3153C485.275 54.3153 483.452 54.7533 481.866 55.6293C480.303 56.5052 479.072 57.7836 478.172 59.4645C477.296 61.1217 476.847 63.1222 476.823 65.4659Z" fill="black"/>
<path d="M47.5357 22L88.7028 100H6.36858L47.5357 22Z" fill="black"/>
</svg>
