<svg width="38" height="12" viewBox="0 0 38 12" fill="none" xmlns="http://www.w3.org/2000/svg">
<g filter="url(#filter0_ii_10_2)">
<path d="M0.173828 11V0.6875H3.31445L4.18164 6.97461L5.04297 0.6875H8.21289V11H6.32617V3.57031L5.14258 11H3.29102L2.03711 3.57031V11H0.173828ZM10.6914 11.0938C10.2031 11.0938 9.83008 10.9805 9.57227 10.7539C9.31836 10.5273 9.14453 10.2168 9.05078 9.82227C8.95703 9.42773 8.91016 8.98047 8.91016 8.48047C8.91016 7.94531 8.96289 7.50781 9.06836 7.16797C9.17383 6.82422 9.35352 6.54297 9.60742 6.32422C9.86523 6.10547 10.2188 5.91992 10.668 5.76758L11.9688 5.32227V4.41992C11.9688 3.94727 11.8145 3.71094 11.5059 3.71094C11.2246 3.71094 11.084 3.90234 11.084 4.28516V4.8125H9.04492C9.04102 4.78125 9.03906 4.74219 9.03906 4.69531C9.03906 4.64453 9.03906 4.58789 9.03906 4.52539C9.03906 3.65039 9.24414 3.03125 9.6543 2.66797C10.0684 2.30078 10.7227 2.11719 11.6172 2.11719C12.0859 2.11719 12.5059 2.20117 12.877 2.36914C13.248 2.5332 13.541 2.77734 13.7559 3.10156C13.9746 3.42578 14.084 3.82617 14.084 4.30273V11H11.998V9.95703C11.8965 10.3242 11.7285 10.6055 11.4941 10.8008C11.2598 10.9961 10.9922 11.0938 10.6914 11.0938ZM11.5176 9.46484C11.6895 9.46484 11.8066 9.39258 11.8691 9.24805C11.9316 9.10352 11.9629 8.94727 11.9629 8.7793V6.33008C11.6738 6.44727 11.4492 6.5957 11.2891 6.77539C11.1289 6.95117 11.0488 7.21094 11.0488 7.55469V8.68555C11.0488 9.20508 11.2051 9.46484 11.5176 9.46484ZM15.0859 11V4.19727H14.7051V2.59766H15.0859V2C15.0859 1.05469 15.5586 0.582031 16.5039 0.582031C16.9492 0.582031 17.3086 0.638672 17.582 0.751953V2.04688C17.4844 2.02734 17.4199 2.01758 17.3887 2.01758C17.2676 2.01758 17.1934 2.0625 17.166 2.15234C17.1387 2.23828 17.125 2.34961 17.125 2.48633V2.59766H17.582V4.2207H17.166V11H15.0859ZM19.1758 11L18.1152 2.21094H19.9141L20.4941 6.93359L21.0039 2.21094H23.0137L23.6172 6.93359L24.1035 2.21094H25.9082L24.8359 11H22.627L21.9941 6.01367L21.4434 11H19.1758ZM30.1211 11.0938C29.7773 11.0938 29.498 11.0098 29.2832 10.8418C29.0684 10.6699 28.8965 10.4102 28.7676 10.0625V11H26.6348V0.6875H28.7676V3.14844C28.8965 2.82422 29.0742 2.57227 29.3008 2.39258C29.5312 2.20898 29.8594 2.11719 30.2852 2.11719C30.8594 2.11719 31.2637 2.32617 31.498 2.74414C31.7363 3.16211 31.8555 3.70898 31.8555 4.38477V8.70898C31.8555 9.1582 31.793 9.56445 31.668 9.92773C31.5469 10.2871 31.3574 10.5723 31.0996 10.7832C30.8457 10.9902 30.5195 11.0938 30.1211 11.0938ZM29.2539 9.45898C29.4766 9.45898 29.6113 9.34961 29.6582 9.13086C29.7051 8.91211 29.7285 8.64258 29.7285 8.32227V4.88867C29.7285 4.56445 29.7051 4.29492 29.6582 4.08008C29.6113 3.86133 29.4785 3.75195 29.2598 3.75195C29.0332 3.75195 28.8945 3.86328 28.8438 4.08594C28.793 4.30469 28.7676 4.57227 28.7676 4.88867V8.32227C28.7676 8.63867 28.793 8.9082 28.8438 9.13086C28.8945 9.34961 29.0312 9.45898 29.2539 9.45898ZM32.6348 11V0.6875H34.791V3.08398C34.9043 2.75586 35.0781 2.51367 35.3125 2.35742C35.5469 2.19727 35.8203 2.11719 36.1328 2.11719C36.7422 2.11719 37.1855 2.30859 37.4629 2.69141C37.7402 3.07422 37.8789 3.58789 37.8789 4.23242V11H35.7578V4.36719C35.7578 4.17578 35.7168 4.01953 35.6348 3.89844C35.5566 3.77734 35.4316 3.7168 35.2598 3.7168C35.1152 3.7168 35 3.7793 34.9141 3.9043C34.832 4.0293 34.791 4.17773 34.791 4.34961V11H32.6348Z" fill="white"/>
</g>
<defs>
<filter id="filter0_ii_10_2" x="0.173828" y="0.582031" width="37.7051" height="14.5117" filterUnits="userSpaceOnUse" color-interpolation-filters="sRGB">
<feFlood flood-opacity="0" result="BackgroundImageFix"/>
<feBlend mode="normal" in="SourceGraphic" in2="BackgroundImageFix" result="shape"/>
<feColorMatrix in="SourceAlpha" type="matrix" values="0 0 0 0 0 0 0 0 0 0 0 0 0 0 0 0 0 0 127 0" result="hardAlpha"/>
<feOffset dy="4"/>
<feGaussianBlur stdDeviation="2"/>
<feComposite in2="hardAlpha" operator="arithmetic" k2="-1" k3="1"/>
<feColorMatrix type="matrix" values="0 0 0 0 0 0 0 0 0 0 0 0 0 0 0 0 0 0 0.25 0"/>
<feBlend mode="normal" in2="shape" result="effect1_innerShadow_10_2"/>
<feColorMatrix in="SourceAlpha" type="matrix" values="0 0 0 0 0 0 0 0 0 0 0 0 0 0 0 0 0 0 127 0" result="hardAlpha"/>
<feOffset dy="4"/>
<feGaussianBlur stdDeviation="2"/>
<feComposite in2="hardAlpha" operator="arithmetic" k2="-1" k3="1"/>
<feColorMatrix type="matrix" values="0 0 0 0 0 0 0 0 0 0 0 0 0 0 0 0 0 0 0.25 0"/>
<feBlend mode="normal" in2="effect1_innerShadow_10_2" result="effect2_innerShadow_10_2"/>
</filter>
</defs>
</svg>
